<svg width="24" height="25" viewBox="0 0 24 25" fill="none" xmlns="http://www.w3.org/2000/svg">
<path fill-rule="evenodd" clip-rule="evenodd" d="M4.23901 10.8915C4.25342 6.65094 7.70278 3.22494 11.9434 3.2393C16.1839 3.25376 19.6099 6.70311 19.5956 10.9437V11.0307C19.5434 13.7872 18.0042 16.335 16.1173 18.3263C15.0381 19.4469 13.833 20.439 12.526 21.2828C12.1765 21.5851 11.6581 21.5851 11.3086 21.2828C9.36008 20.0146 7.64995 18.4133 6.2564 16.5524C5.01436 14.9296 4.30918 12.96 4.23901 10.9176V10.8915Z" stroke="white" stroke-width="1.5" stroke-linecap="round" stroke-linejoin="round"/>
<path d="M11.9172 13.5004C13.2763 13.5004 14.378 12.3986 14.378 11.0395C14.378 9.68038 13.2763 8.57861 11.9172 8.57861C10.5581 8.57861 9.4563 9.68038 9.4563 11.0395C9.4563 12.3986 10.5581 13.5004 11.9172 13.5004Z" stroke="#E09F1F" stroke-width="1.5" stroke-linecap="round" stroke-linejoin="round"/>
</svg>
