<svg width="20" height="20" viewBox="0 0 20 20" fill="none" xmlns="http://www.w3.org/2000/svg">
<path d="M11.3481 17.8057C10.9867 18.144 10.5037 18.3332 10.0009 18.3332C9.49817 18.3332 9.01517 18.144 8.65375 17.8057C5.34418 14.6882 0.908967 11.2056 3.07189 6.14955C4.24136 3.4158 7.04862 1.6665 10.0009 1.6665C12.9532 1.6665 15.7605 3.4158 16.93 6.14955C19.0902 11.1993 14.6658 14.6989 11.3481 17.8057Z" stroke="white" stroke-width="1.5"/>
<path d="M12.9166 9.16667C12.9166 10.7775 11.6108 12.0833 9.99992 12.0833C8.38909 12.0833 7.08325 10.7775 7.08325 9.16667C7.08325 7.55583 8.38909 6.25 9.99992 6.25C11.6108 6.25 12.9166 7.55583 12.9166 9.16667Z" stroke="white" stroke-width="1.5"/>
</svg>
