<svg width="21" height="20" viewBox="0 0 21 20" fill="none" xmlns="http://www.w3.org/2000/svg">
<path d="M6.33325 7.0835L8.78494 8.533C10.2143 9.37808 10.7856 9.37808 12.2149 8.533L14.6666 7.0835" stroke="white" stroke-width="1.5" stroke-linecap="round" stroke-linejoin="round"/>
<path d="M2.17989 11.2295C2.23437 13.7841 2.2616 15.0614 3.20421 16.0076C4.14682 16.9539 5.45869 16.9868 8.08244 17.0527C9.6995 17.0934 11.3007 17.0934 12.9178 17.0527C15.5415 16.9868 16.8533 16.9539 17.7959 16.0076C18.7386 15.0614 18.7658 13.7841 18.8203 11.2295C18.8378 10.4081 18.8378 9.59153 18.8203 8.7702C18.7658 6.21555 18.7386 4.93825 17.7959 3.99205C16.8533 3.04586 15.5415 3.0129 12.9178 2.94698C11.3007 2.90635 9.6995 2.90635 8.08244 2.94697C5.45869 3.01289 4.14682 3.04585 3.20421 3.99205C2.2616 4.93824 2.23436 6.21555 2.17989 8.77011C2.16237 9.59153 2.16237 10.4081 2.17989 11.2295Z" stroke="white" stroke-width="1.5" stroke-linejoin="round"/>
</svg>
