<svg width="49" height="48" viewBox="0 0 49 48" fill="none" xmlns="http://www.w3.org/2000/svg">
<path d="M10.5 30C10.5 33.713 11.9751 37.2742 14.6006 39.8996C17.2261 42.5252 20.787 43.9998 24.5 43.9998C28.213 43.9998 31.774 42.5252 34.3996 39.8996C37.025 37.2742 38.5 33.713 38.5 30V18C38.5 14.287 37.025 10.7261 34.3996 8.10058C31.774 5.47508 28.213 4 24.5 4C20.787 4 17.2261 5.47508 14.6006 8.10058C11.9751 10.7261 10.5 14.287 10.5 18V30Z" stroke="black" stroke-width="2" stroke-linecap="round" stroke-linejoin="round"/>
<path d="M24.5 12V28" stroke="black" stroke-width="2" stroke-linecap="round" stroke-linejoin="round"/>
<path d="M30.5 22L24.5 28L18.5 22" stroke="black" stroke-width="2" stroke-linecap="round" stroke-linejoin="round"/>
</svg>
